<svg width="30" height="30" viewBox="0 0 30 30" fill="none" xmlns="http://www.w3.org/2000/svg">
<g clip-path="url(#clip0_1006_4426)">
<path d="M22.3534 1.67734C22.3344 1.35236 22.2814 1.03042 22.1955 0.717038C22.1681 0.5825 22.1125 0.455692 22.0323 0.34552C21.9522 0.23535 21.8496 0.144461 21.7317 0.0792143C21.6038 0.0259193 21.4662 0.00146435 21.3283 0.00748561C21.1904 0.0135069 21.0553 0.0498678 20.9323 0.114117C20.7186 0.207483 20.4962 0.294266 20.2811 0.378144C20.0974 0.450082 19.9137 0.521729 19.7319 0.598412C19.4437 0.720096 19.1544 0.839328 18.865 0.958869C18.1031 1.27341 17.3153 1.59866 16.5578 1.96127C15.6801 2.38142 14.7694 2.87472 13.7738 3.46967C11.3051 4.94457 8.89437 6.39193 6.54034 7.88336C6.15082 8.15039 5.69379 8.29508 5.22526 8.29968C4.2675 8.31683 3.31211 8.38448 2.38823 8.44999C0.600773 8.57703 0.2999 9.23504 0.269751 10.7604C0.264975 11.0106 0.266612 11.2605 0.268403 11.5104C0.270045 11.7576 0.271984 12.0048 0.266909 12.2519C0.207208 15.2672 0.14107 18.6842 0.0655479 22.0583C0.0470404 22.8831 0.452863 23.4795 1.17868 23.694C1.48703 23.7818 1.80573 23.8252 2.1257 23.8231C3.4242 23.8194 5.12228 23.7447 6.7781 23.2026C6.97899 23.3324 7.17868 23.4625 7.37719 23.5929C7.84077 23.8961 8.32002 24.2097 8.80032 24.5016C12.0652 26.4847 15.5978 28.0321 19.0143 29.5287L19.6677 29.8151C19.7126 29.8364 19.7589 29.8545 19.8064 29.8692C19.8877 29.8946 19.9723 29.908 20.0574 29.9091C20.169 29.9119 20.2789 29.8799 20.3723 29.8173C20.4502 29.7571 20.5137 29.6797 20.558 29.5906C20.6023 29.5016 20.6262 29.4034 20.628 29.3034C20.6344 29.2355 20.6371 29.1666 20.6398 29.0976C20.639 28.9773 20.6528 28.8573 20.6807 28.7403C21.3752 26.4334 21.8634 24.0664 22.139 21.6687L22.2407 20.7522C22.5155 18.2904 22.7992 15.7451 22.8277 13.2116C22.8647 9.91616 22.6572 6.58081 22.4565 3.35535C22.4219 2.79626 22.3874 2.23693 22.3534 1.67734ZM19.362 27.4297C19.3769 27.5993 19.3919 27.7687 19.4116 27.9905V27.9945C16.6961 25.5943 13.6168 23.9588 10.6354 22.3756C9.97556 22.0251 9.2942 21.6634 8.63241 21.3009C8.64301 20.6772 8.6575 20.0637 8.67213 19.4572C8.70646 18.0083 8.73913 16.6399 8.71779 15.2503C8.69614 13.8546 8.6214 12.4857 8.54244 11.0366C8.50931 10.4323 8.47601 9.82218 8.44631 9.20382C8.52967 9.14091 8.61619 9.08256 8.70553 9.02902C9.66076 8.47422 10.6164 7.92044 11.5724 7.36769C13.7766 6.09178 16.0559 4.77254 18.2871 3.4556C18.8183 3.12767 19.3314 2.76998 19.8244 2.38417C19.9938 2.25713 20.1677 2.12703 20.3461 1.99524C20.3346 2.17892 20.3229 2.35861 20.3113 2.53433C20.2731 3.11596 20.2367 3.66497 20.2165 4.21339C20.199 4.68228 20.1813 5.15131 20.1631 5.62049C20.091 7.49916 20.0165 9.44213 19.978 11.3543C19.9049 15.0015 19.672 18.9438 19.2659 23.4066C19.1419 24.7828 19.2453 26.1487 19.362 27.4297ZM6.31183 15.5356C6.31616 15.7405 6.31958 15.9456 6.32316 16.151C6.34973 17.6775 6.3769 19.2539 6.70974 20.9062H2.48196C2.48062 20.8975 2.47929 20.8887 2.4778 20.88C2.45484 20.7556 2.44056 20.6296 2.4351 20.503C2.4142 19.4273 2.39464 18.3513 2.37632 17.2751C2.35174 15.867 2.32561 14.4587 2.29793 13.0506C2.29032 12.6887 2.26659 12.3227 2.24361 11.969C2.22868 11.7281 2.21256 11.4872 2.20167 11.2461C2.19346 11.0595 2.19543 10.8717 2.19767 10.673C2.19767 10.6271 2.19868 10.5812 2.19898 10.5353L6.39958 10.2771C6.38898 10.7646 6.37437 11.2538 6.36004 11.7443C6.32332 12.9852 6.28541 14.2688 6.31183 15.5356Z" fill="black"/>
<path d="M26.4757 7.29849C26.0787 6.96267 25.5411 6.90772 25.225 7.1716C24.9203 7.42614 24.8505 7.90799 25.0517 8.37131C25.1475 8.59187 25.2626 8.80432 25.3736 9.00973C25.4227 9.10034 25.4717 9.19094 25.5193 9.28262C26.6909 11.5371 27.2109 13.4783 27.1557 15.3924V15.3989C27.169 17.0306 26.7641 18.6371 25.9815 20.0578C25.5956 20.7878 25.2253 21.5407 24.8671 22.2689C24.7154 22.5772 24.5635 22.8852 24.4109 23.1928C24.3048 23.4057 24.1075 23.802 24.4651 24.0301C24.5923 24.1042 24.7368 24.1412 24.883 24.1372C25.0048 24.1387 25.1257 24.1158 25.2392 24.0699C26.022 23.7428 26.7163 23.227 27.2633 22.566C28.2717 21.3178 28.9787 20.0962 29.4241 18.8313C29.7617 17.8781 29.9251 16.8693 29.906 15.8552C29.8524 13.0311 28.895 10.4063 26.9787 7.82962C26.8312 7.63349 26.6626 7.45527 26.4757 7.29849Z" fill="black"/>
</g>
<defs>
<clipPath id="clip0_1006_4426">
<rect width="30" height="30" fill="white"/>
</clipPath>
</defs>
</svg>
