<svg width="40" height="40" viewBox="0 0 40 40" fill="none" xmlns="http://www.w3.org/2000/svg">
<path id="Vector" d="M19.0967 23.9565C15.6178 27.1202 12.2156 30.1847 8.84754 33.2873C6.89632 35.0846 5.01497 36.9599 3.06831 38.7621C2.54982 39.2544 1.95403 39.6546 1.3055 39.9461C0.9857 40.0824 0.295113 39.9461 0.137623 39.6962C-0.0707565 39.3646 -0.00914692 38.776 0.103882 38.3432C0.186109 38.0277 0.520909 37.7664 0.773483 37.513C5.57675 32.7091 10.3822 27.9082 15.1898 23.1105C15.7292 22.5724 16.2842 22.0507 16.9039 21.4531C14.803 19.088 12.6988 16.8058 10.69 14.4387C7.48393 10.6592 4.34222 6.8234 1.17394 3.01114C1.05876 2.87259 0.959693 2.72094 0.843451 2.58239C0.289021 1.91665 -0.101855 1.1991 0.529445 0.391539C1.00218 -0.213111 2.1323 -0.122801 2.91921 0.699762C4.879 2.74772 6.78809 4.84529 8.68118 6.95898C12.1379 10.8162 15.5677 14.6986 19.0121 18.5673C19.1596 18.708 19.3164 18.8383 19.4814 18.957C22.1448 16.3713 24.7787 13.7939 27.4346 11.2387C30.5148 8.2768 33.6057 5.32658 36.7075 2.38797C37.871 1.2834 38.8039 1.0843 39.518 1.72877C40.258 2.39642 40.1891 3.51186 39.009 4.7078C35.8185 7.9416 32.5509 11.0969 29.2865 14.2557C26.7996 16.6628 24.273 19.0285 21.6262 21.5428C23.7769 23.8024 25.834 26.0546 27.9907 28.2027C30.0621 30.2659 32.2494 32.2094 34.3616 34.2301C35.1873 34.9905 35.9605 35.808 36.6759 36.6768C37.2528 37.4058 37.338 38.3107 36.6288 39.0296C35.93 39.7387 35.1209 39.4881 34.4467 38.9514C33.1572 37.9781 31.9211 36.9335 30.744 35.8223C27.1408 32.2378 23.6011 28.5875 20.0382 24.961C19.7565 24.6746 19.4873 24.3741 19.0967 23.9565Z" fill="#E8E8E8"/>
</svg>
