<svg width="32" height="32" viewBox="0 0 32 32" fill="none" xmlns="http://www.w3.org/2000/svg">
<g id="Frame 289">
<path id="Vector" d="M2.62452 23.2955C3.6021 25.5844 4.91183 27.0609 6.74561 27.9423C6.99527 28.0623 7.24396 28.1847 7.49253 28.307C8.10983 28.6108 8.74821 28.9248 9.39352 29.1971C12.159 30.3643 14.6391 30.9334 17.0233 30.9333C17.8776 30.9334 18.7302 30.8597 19.5716 30.713C23.7901 29.9796 27.0219 27.8936 29.1773 24.513C30.3197 22.7204 31.0088 20.665 31.3448 18.0445C31.8506 14.0976 30.7769 10.3257 28.1535 6.83372C26.3753 4.46667 23.7906 2.90389 20.2518 2.05601C18.229 1.57093 16.0538 1.47414 13.6017 1.7595C10.8557 2.07911 8.53051 3.06186 6.49353 4.76407C5.0084 5.99244 3.71368 7.43146 2.6511 9.03477C1.45385 10.8615 0.992518 12.9684 1.10972 16.0786C0.913104 18.157 1.38037 20.3834 2.62452 23.2955ZM23.1658 4.6806C25.7785 6.0332 27.6398 8.04931 28.6979 10.6746C28.7503 10.8046 28.803 10.9344 28.8559 11.064C29.3143 12.1895 29.7861 13.3503 29.9036 14.5865C29.5691 14.5092 29.2279 14.4642 28.8845 14.4524C27.1762 14.3577 25.3876 14.5111 23.2567 14.9348C22.4497 15.0952 21.6311 15.2831 20.8402 15.4648C20.5026 15.5424 20.1633 15.6196 19.8224 15.6967L17.7409 12.0888C17.7909 12.0354 17.84 11.9823 17.8881 11.9295C18.0282 11.7767 18.1605 11.6334 18.3034 11.5011C19.962 9.96675 21.2318 7.99229 22.2991 5.28752C22.4119 4.98694 22.4743 4.67004 22.484 4.34942C22.7129 4.454 22.9402 4.5644 23.1658 4.6806ZM23.1945 27.8359C23.1875 27.5812 23.1639 27.3283 23.1374 27.0863C22.786 23.8833 22.0858 21.1152 20.9956 18.6237C20.8931 18.3763 20.8046 18.1236 20.7303 17.8663C20.7036 17.7802 20.6771 17.6944 20.6498 17.6098C22.3717 16.8749 26.8139 16.2572 29.0076 16.6418C29.0525 16.6497 29.0977 16.6584 29.1428 16.667C29.3254 16.7097 29.5123 16.7303 29.6998 16.7284C29.7802 16.7244 29.8601 16.7129 29.9384 16.6944C29.8553 19.4869 29.2487 21.6545 28.0337 23.5651C26.8722 25.425 25.1908 26.9089 23.1945 27.8359ZM6.5512 25.8586C5.49344 25.2085 4.66118 24.2333 4.07749 22.9594C2.89902 20.3882 2.3875 18.1331 2.46768 15.8624C2.49635 15.5428 2.5205 15.2226 2.54456 14.9025C2.54533 14.8924 2.5462 14.882 2.54697 14.8719C2.68499 14.9267 2.82586 14.9743 2.96898 15.0142C7.13137 16.178 11.2377 15.7467 15.1752 13.7313C15.4185 13.6069 15.6615 13.4813 15.928 13.3434L16.2363 13.1842C16.9387 14.2859 17.501 15.2577 17.9396 16.3497C17.8517 16.389 17.7684 16.426 17.687 16.4624C17.4645 16.5615 17.2543 16.6552 17.0509 16.7534C16.7763 16.8857 16.4995 17.0152 16.2231 17.1446C15.558 17.4558 14.8704 17.7772 14.2167 18.1386C11.5263 19.6186 9.2286 21.7123 7.51285 24.2471C7.17039 24.7732 6.87257 25.3266 6.62248 25.9017C6.59897 25.8873 6.57515 25.8733 6.5512 25.8586ZM7.81984 26.5686C7.91464 26.4241 8.00745 26.2779 8.10027 26.1317C8.32357 25.7803 8.55436 25.417 8.80918 25.0837C11.1378 22.0397 14.2606 19.7714 18.0922 18.3425C18.2501 18.2882 18.4116 18.2443 18.5755 18.2116C18.6344 18.1982 18.6951 18.1844 18.7576 18.1696C19.6629 20.4686 20.5906 22.8456 20.9302 25.3668C20.958 25.573 20.9855 25.7792 21.0125 25.9853C21.1154 26.7656 21.2219 27.5722 21.358 28.3617C21.3672 28.4148 21.3791 28.4655 21.3922 28.5151C20.7872 28.693 20.1714 28.8328 19.5486 28.9332C15.6941 29.5613 11.8403 28.7936 7.80677 26.588L7.81984 26.5686ZM20.5454 4.37584L20.536 4.41061C20.1807 5.71871 19.541 7.00064 18.4619 8.5666C17.9482 9.30823 17.3273 9.97069 16.6192 10.5327C16.4859 10.3601 16.3552 10.1903 16.227 10.0233C15.9048 9.60396 15.6003 9.20787 15.2853 8.81246C13.7024 6.82719 12.3629 5.42008 10.9423 4.24812C10.813 4.14241 10.6766 4.04564 10.5339 3.95858C11.343 3.6418 12.1846 3.41437 13.0438 3.28034C15.8925 2.8282 18.4589 2.96835 20.8197 3.71086C20.6866 3.91321 20.5935 4.13889 20.5454 4.37584ZM9.2459 4.72108C9.5897 5.07232 9.95063 5.41733 10.2997 5.75101C10.774 6.20467 11.2644 6.67359 11.7157 7.16118C13.0077 8.54976 14.171 10.0512 15.1915 11.6472C15.1036 11.7043 15.022 11.7576 14.9458 11.8077C14.7556 11.9329 14.5912 12.0412 14.4244 12.1315C11.0153 13.9755 7.29679 14.4833 3.37253 13.6405C3.12506 13.5872 2.89308 13.5416 2.66494 13.511C2.69141 13.2581 2.71986 13.0056 2.75666 12.756C2.97019 11.2897 3.44689 10.137 4.21434 9.23275C5.0689 8.22539 6.07361 7.06553 7.18453 6.04922C7.78532 5.49829 8.44722 5.01698 9.15748 4.61451C9.18445 4.65201 9.21399 4.68762 9.2459 4.72108Z" fill="white" fill-opacity="0.8"/>
</g>
</svg>
