<svg width="32" height="32" viewBox="0 0 32 32" fill="none" xmlns="http://www.w3.org/2000/svg">
<g id="Frame 288" clip-path="url(#clip0_759_3843)">
<path id="Vector" d="M31.9834 19.7626C31.9868 18.4244 31.9905 17.0403 31.9827 15.679C31.9757 14.4379 31.9319 13.1771 31.8896 11.9578L31.8624 11.17C31.8525 10.8718 31.8445 10.5733 31.8363 10.275C31.8101 9.3121 31.784 8.31636 31.6875 7.34158C31.5885 6.35349 31.4026 5.37619 31.132 4.42119C30.3756 1.74586 27.8537 0.533356 25.817 0.533356H25.7859C22.1886 0.555336 18.5317 0.656453 14.9963 0.754116C13.7594 0.78825 12.5227 0.821278 11.286 0.853217L10.5839 0.870441C9.19137 0.903873 7.75138 0.938476 6.33727 1.02732C3.78223 1.18777 2.08476 2.23669 1.14825 4.23391C0.875504 4.81559 0.715538 5.44433 0.676934 6.08643C0.438919 10.7882 0.545438 15.5672 0.648565 20.1886C0.661897 20.7854 0.674974 21.3815 0.687783 21.9771L0.696798 22.4022C0.723854 23.6724 0.751957 24.9857 0.760061 26.2769C0.77666 28.9356 3.06374 31.4339 5.65433 31.6223C6.2249 31.6531 6.79671 31.6524 7.36723 31.6204C7.74798 31.6061 8.14219 31.5903 8.5262 31.5962C10.2396 31.6199 11.9817 31.6537 13.6665 31.6862C14.6262 31.7047 15.586 31.7227 16.5458 31.7402C17.2342 31.7523 17.9229 31.7632 18.612 31.7732C19.8187 31.7915 21.0663 31.8104 22.2929 31.8391C22.5089 31.8513 22.7233 31.8837 22.9334 31.9358C23.0379 31.9579 23.1413 31.9801 23.2455 31.9982C23.253 31.9995 23.2605 32 23.2681 32H24.6055C24.612 32 24.6186 31.9996 24.6251 31.9987C24.8996 31.9578 25.1751 31.9216 25.4505 31.8855C26.0482 31.8065 26.6661 31.7261 27.2656 31.5946C29.9133 31.0138 32.0364 28.2515 31.9994 25.4369C31.974 23.5461 31.9789 21.6229 31.9834 19.7626ZM30.232 22.7321C30.2346 23.6884 30.2368 24.6449 30.2388 25.6014C30.2418 27.3725 28.7991 29.3339 27.1513 29.7987C26.1595 30.0927 25.1337 30.2545 24.1002 30.2797C22.6537 30.2929 21.2149 30.2284 19.6916 30.1614C19.0921 30.1351 18.4825 30.1077 17.8591 30.0849L18.0059 18.4597C18.2647 18.4524 18.5176 18.4465 18.766 18.4397C19.4794 18.4212 20.1531 18.4039 20.8288 18.3773C21.1909 18.3662 21.5517 18.3279 21.9083 18.2628C22.4108 18.1669 22.6897 17.8392 22.6543 17.3864C22.6177 16.9182 22.2865 16.6276 21.7898 16.6276H21.7885C21.3824 16.6276 20.9712 16.65 20.573 16.6713C20.4203 16.6795 20.2675 16.6878 20.1147 16.6948C19.6336 16.717 19.1525 16.7399 18.652 16.764L18.0769 16.7916C18.0749 16.546 18.0722 16.3008 18.0686 16.0563C18.0405 13.9008 18.014 11.865 18.8006 9.88936C19.4541 8.24792 21.1704 7.44914 22.7931 8.03183C23.1249 8.16683 23.44 8.33986 23.7324 8.54752C23.9409 8.68309 24.1565 8.82392 24.3815 8.93935C24.534 9.01832 24.924 9.1923 25.2509 9.11043C25.6237 9.0183 25.7858 8.6565 25.674 8.16608C25.5949 7.82895 25.4441 7.51312 25.232 7.24043C25.0198 6.96772 24.7515 6.74467 24.4454 6.58663C23.7857 6.21643 23.0561 5.99027 22.3039 5.92286C21.5518 5.85548 20.794 5.94833 20.0798 6.19543C18.7402 6.67031 17.6879 7.70021 17.1153 9.09539C16.61 10.3387 16.3359 11.6648 16.3065 13.0078C16.2831 13.9062 16.2884 14.794 16.2942 15.7339C16.2964 16.1105 16.2986 16.4923 16.299 16.8813L15.8829 16.9164C15.4698 16.9515 15.0795 16.9847 14.6951 17.0113C14.5514 17.0213 14.4034 17.0216 14.2599 17.0218C14.1616 17.0218 14.0632 17.0218 13.9651 17.0251C13.2677 17.0464 13.1061 17.4331 13.0934 17.7546C13.0749 18.222 13.387 18.5148 13.9281 18.5377C14.3661 18.5563 14.8099 18.5448 15.2391 18.5339C15.4279 18.529 15.6165 18.524 15.8051 18.5217C15.9061 18.5202 16.0073 18.5209 16.1265 18.5211H16.1963L16.3086 29.9475H16.0956C15.795 29.9475 15.4659 29.9475 15.1367 29.9475C14.3148 29.9485 13.4926 29.9471 12.6702 29.9436C10.826 29.9382 8.91897 29.9328 7.0436 29.9653C5.63695 29.9846 4.45681 29.5795 3.64408 28.7783C2.78952 27.936 2.33467 26.671 2.32879 25.1211L2.32173 23.2503C2.30291 18.325 2.2833 13.232 2.28997 8.22302C2.27466 7.05371 2.55229 5.89937 3.0972 4.86669C3.59153 3.95205 4.32153 3.38215 5.20823 3.21841C6.61084 2.95938 7.98299 2.72377 9.35004 2.68665C13.6568 2.56938 19.3264 2.43368 24.9879 2.42341H25.0034C27.6482 2.42341 29.2104 3.67722 29.6466 6.15037C29.951 7.87566 30.2739 9.88765 30.2519 11.9323C30.2123 15.5328 30.2225 19.1925 30.232 22.7321Z" fill="white" fill-opacity="0.8"/>
</g>
<defs>
<clipPath id="clip0_759_3843">
<rect width="32" height="32" fill="white"/>
</clipPath>
</defs>
</svg>
