<svg width="32" height="32" viewBox="0 0 32 32" fill="none" xmlns="http://www.w3.org/2000/svg">
<g id="instagram" clip-path="url(#clip0_759_3833)">
<path id="Vector" d="M31.3328 5.25574C30.8664 1.39326 27.6427 -0.157178 24.656 0.0212017C22.8835 0.126061 21.1281 0.18189 19.0378 0.233592C17.1439 0.280402 15.2017 0.320603 13.4883 0.356041C11.0295 0.407082 8.48711 0.459958 5.96252 0.530305C3.06416 0.611231 0.727116 2.49366 0.277673 5.10814C0.0972144 6.15753 0.0919614 7.21642 0.103109 8.39236C0.135765 11.8264 0.185601 15.2964 0.234257 18.6522L0.239507 19.0155C0.258742 20.3655 0.277613 21.7156 0.296148 23.0656C0.299296 23.2931 0.307165 23.521 0.315296 23.749L0.315967 23.7673C0.348944 24.3321 0.343385 24.8986 0.299318 25.4627C0.143384 26.9692 0.715317 28.5755 1.82942 29.7592C3.06785 31.075 4.82297 31.744 6.77287 31.6438C8.90061 31.5327 11.071 31.5538 13.1698 31.5742L13.3218 31.5758C15.8126 31.5997 18.3456 31.6636 20.7984 31.7257L22.0351 31.7569C22.2434 31.7695 22.4501 31.801 22.6526 31.8514C22.7588 31.8741 22.865 31.8966 22.9709 31.915C22.9861 31.9176 23.0016 31.9191 23.0169 31.9191H24.3589C24.3722 31.9189 24.3853 31.918 24.3983 31.9161C24.6665 31.8765 24.936 31.8405 25.2046 31.8051L25.2248 31.8024C25.827 31.7231 26.4497 31.6414 27.0566 31.5085C29.6749 30.935 31.8931 28.197 31.9004 25.5298C31.9023 24.9014 31.9045 24.2728 31.907 23.6441L31.9082 23.3285C31.9213 19.8831 31.9357 16.3204 31.8623 12.8122C31.8086 10.2611 31.6305 7.71815 31.3328 5.25574ZM29.8771 25.344C29.8851 27.404 28.1029 29.3327 25.8198 29.7349C24.0704 30.043 22.2822 29.9382 20.5526 29.8373C19.9107 29.7998 19.2468 29.7609 18.5871 29.7433C17.8383 29.7235 17.0755 29.6845 16.3338 29.6465L16.2682 29.6431C15.949 29.6268 15.6295 29.6106 15.3126 29.596H15.298C14.4909 29.596 13.6838 29.5951 12.8766 29.593C11.9398 29.5914 10.9881 29.5898 10.0324 29.5898C8.77536 29.5898 7.74193 29.5924 6.77931 29.5983H6.73695C5.32501 29.5983 4.1603 29.1761 3.3687 28.3768C2.54562 27.5459 2.11611 26.3048 2.12699 24.7873C2.15244 21.2193 2.13708 17.607 2.12213 14.1134C2.11373 12.1189 2.10509 10.0565 2.10404 8.01871C2.08433 6.84509 2.3476 5.68419 2.87123 4.63583C3.46507 3.48436 4.52581 2.87332 6.20922 2.71293C8.57145 2.48813 10.4776 2.36567 12.2078 2.32772C17.2029 2.21744 21.0471 2.17843 24.6719 2.20104C27.3159 2.21757 28.843 3.47166 29.3407 6.03575C29.8915 8.87741 29.8837 11.7982 29.8754 14.6242L29.8746 14.8639C29.8635 18.8718 29.8641 22.2016 29.8768 25.344H29.8771Z" fill="white" fill-opacity="0.8"/>
<path id="Vector_2" d="M16.6782 8.43621C15.021 8.405 13.5462 8.74458 12.2929 9.44118C10.7833 10.2795 9.17548 11.4114 8.6943 13.4468C8.07554 16.0636 8.35699 18.5813 9.53076 20.9299C10.3712 22.6119 11.6885 23.6469 13.3405 23.9227C14.3289 24.0968 15.3299 24.1881 16.3333 24.1961C16.648 24.1961 16.9603 24.185 17.2601 24.1631C19.4842 24.0014 21.2509 23.1024 22.5111 21.4907C24.4624 18.9951 24.8017 16.1379 23.5199 12.9983C22.2804 9.96216 19.9094 8.38397 16.6782 8.43621ZM22.1024 16.4589C22.112 19.8705 19.8433 22.1489 16.3222 22.262C15.4265 22.2774 14.5317 22.1986 13.6521 22.0271C12.5263 21.8233 11.6717 21.1402 11.1116 19.9968C10.1774 18.0888 9.95082 16.1167 10.4378 14.1352C10.813 12.6085 11.9187 11.4888 13.8179 10.7119C14.5236 10.4258 15.2778 10.2805 16.0384 10.284C16.6973 10.2872 17.3525 10.3844 17.9844 10.573C20.4779 11.3046 22.0943 13.6149 22.1024 16.4589Z" fill="white" fill-opacity="0.8"/>
<path id="Vector_3" d="M25.2141 5.11414H25.1765C24.8078 5.12344 24.4568 5.275 24.1956 5.53755C23.9347 5.80011 23.7833 6.1537 23.7732 6.52535C23.764 6.70649 23.7914 6.8876 23.8537 7.05776C23.916 7.22795 24.0118 7.38364 24.1353 7.51547C24.2642 7.64782 24.4186 7.75242 24.5888 7.82287C24.7592 7.89333 24.9417 7.9282 25.1259 7.9254C25.4889 7.91358 25.8335 7.76147 26.0884 7.50055C26.3433 7.23965 26.4889 6.88991 26.4952 6.52374C26.507 5.79302 25.9083 5.1345 25.2141 5.11414Z" fill="white" fill-opacity="0.8"/>
</g>
<defs>
<clipPath id="clip0_759_3833">
<rect width="32" height="32" fill="white"/>
</clipPath>
</defs>
</svg>
