<svg width="32" height="32" viewBox="0 0 32 32" fill="none" xmlns="http://www.w3.org/2000/svg">
<g id="linkedin" clip-path="url(#clip0_759_3838)">
<path id="Vector" d="M22.1809 10.9783C20.6806 9.51679 18.7511 9.35907 17.1455 10.5669C16.5144 11.0416 15.9074 11.708 15.29 12.6036C14.5039 13.7452 14.3009 15.1368 14.1221 16.3644C13.8054 18.5361 14.048 20.6925 14.2825 22.7771C14.3172 23.0852 14.397 23.7937 15.0892 23.7936C15.1113 23.7936 15.1342 23.793 15.1578 23.7914C15.8452 23.7474 15.8477 23.1594 15.8494 22.7701C15.8494 22.7327 15.8494 22.6962 15.8504 22.6606C15.8591 22.1938 15.8477 21.7198 15.8367 21.2615C15.821 20.6067 15.8046 19.9296 15.8476 19.2702C15.9274 17.887 16.0897 16.5097 16.3336 15.1458C16.5457 14.0049 17.1813 12.9863 18.113 12.2943C19.1032 11.5411 19.9872 11.6301 20.8164 12.5656C21.4441 13.268 21.8627 14.1321 22.0247 15.0601C22.2085 16.1384 22.3352 17.2467 22.4575 18.3188C22.5053 18.7366 22.553 19.1546 22.6041 19.5718L22.5822 19.5747C22.5522 19.5788 22.5246 19.5929 22.504 19.6149C22.4834 19.6369 22.4709 19.6653 22.4689 19.6954C22.4559 19.8845 22.4425 20.0737 22.4288 20.2629C22.3961 20.7182 22.3622 21.1892 22.3384 21.6535L22.3355 21.7097C22.3076 22.0462 22.311 22.3844 22.3454 22.7202C22.4255 23.3143 22.8435 23.7414 23.3857 23.7829C23.9076 23.8227 24.3927 23.4692 24.5924 22.9035C24.6378 22.7695 24.6659 22.6302 24.6763 22.489C24.8753 20.2266 24.9887 17.249 24.092 14.2806C23.6773 12.9075 23.052 11.827 22.1809 10.9783Z" fill="white" fill-opacity="0.8"/>
<path id="Vector_2" d="M9.74984 22.4944C9.75812 22.9003 9.85923 23.299 10.0454 23.66C10.1623 23.8857 10.5507 24.003 10.7906 24.003C10.7984 24.003 10.8059 24.003 10.8134 24.003C11.0387 23.9957 11.3172 23.7246 11.3785 23.5159C11.4728 23.1702 11.511 22.8117 11.4918 22.4539C11.4154 20.3598 11.3274 18.2312 11.2427 16.1726L11.0738 12.0556C11.061 11.742 11.037 11.1582 10.327 11.0996C10.3037 11.098 10.2803 11.1024 10.2592 11.1124C9.71382 11.3768 9.73103 11.8741 9.7449 12.2738C9.74732 12.3422 9.74971 12.4102 9.74946 12.4765C9.73953 15.2211 9.73011 18.8402 9.74984 22.4944Z" fill="white" fill-opacity="0.8"/>
<path id="Vector_3" d="M10.3649 7.04329C10.2787 6.97696 10.1897 6.90847 10.1114 6.83718C10.0932 6.82049 10.0707 6.80933 10.0464 6.80499C10.0221 6.80063 9.99708 6.80329 9.97425 6.81262C9.11194 7.16155 9.05694 7.76197 9.1626 8.2042C9.21456 8.38105 9.30352 8.54485 9.42356 8.68474C9.5436 8.82461 9.69199 8.93739 9.85891 9.0156C9.90857 9.03366 9.96115 9.04232 10.014 9.04108C10.2878 9.04108 10.6572 8.85089 10.7771 8.65676C10.8684 8.49757 10.925 8.32086 10.9431 8.13825C10.9612 7.95564 10.9404 7.7713 10.8821 7.5973C10.7883 7.36931 10.5731 7.20381 10.3649 7.04329Z" fill="white" fill-opacity="0.8"/>
<path id="Vector_4" d="M30.9258 5.69734C30.473 1.97898 27.3439 0.486417 24.4449 0.658141C22.7245 0.759089 21.0206 0.812929 18.9916 0.862575C17.1533 0.907639 15.2682 0.946371 13.605 0.980487C11.2185 1.02962 8.75053 1.08053 6.30018 1.14825C3.4869 1.22616 1.21846 3.03838 0.782212 5.55543C0.60705 6.56554 0.601952 7.58494 0.612772 8.717C0.644469 12.023 0.692843 15.3635 0.74007 18.5939L0.74529 18.9437C0.764045 20.2433 0.782362 21.543 0.800269 22.8427C0.803324 23.0617 0.810961 23.2811 0.818853 23.5006L0.819506 23.5182C0.851515 24.062 0.846119 24.6073 0.803346 25.1504C0.651988 26.6007 1.20713 28.147 2.28853 29.2865C3.4906 30.5533 5.1942 31.1973 7.08686 31.1008C9.15214 30.9939 11.2588 31.0143 13.2961 31.034L13.4436 31.0354C15.8612 31.0585 18.3199 31.12 20.7007 31.1798L21.9011 31.2097C22.1033 31.2218 22.3039 31.2521 22.5004 31.3006C22.6034 31.3225 22.7067 31.3443 22.8094 31.362C22.8242 31.3645 22.8391 31.3658 22.8541 31.3658H24.1567C24.1694 31.3658 24.1823 31.3648 24.1949 31.363C24.4552 31.3248 24.7168 31.2903 24.9775 31.2562L24.9971 31.2537C25.5816 31.1773 26.1861 31.0985 26.7752 30.9706C29.3166 30.4185 31.4697 27.7828 31.4768 25.2152C31.4786 24.61 31.4808 24.0048 31.4832 23.3997L31.4844 23.0959C31.4971 19.7791 31.5111 16.3491 31.4398 12.9719C31.3876 10.5154 31.2147 8.06788 30.9258 5.69734ZM29.5128 25.0361C29.5207 27.0192 27.7908 28.876 25.5747 29.2631C23.8767 29.5597 22.141 29.4589 20.4622 29.3618C19.839 29.3256 19.1947 29.2882 18.5543 29.2713C17.8274 29.2522 17.0871 29.2146 16.3671 29.1781L16.3035 29.1749C15.9936 29.1592 15.6835 29.1436 15.376 29.1296H15.3617C14.5783 29.1296 13.7948 29.1286 13.0113 29.1266C12.1022 29.1251 11.1788 29.1236 10.2507 29.1236C9.03057 29.1236 8.02747 29.1261 7.09374 29.1317H7.05262C5.68213 29.1317 4.55162 28.7252 3.78325 27.9558C2.98433 27.1558 2.56743 25.961 2.57799 24.5001C2.60269 21.0653 2.58778 17.5879 2.57327 14.2248C2.56512 12.3045 2.55672 10.319 2.5557 8.35723C2.53658 7.22739 2.79215 6.10981 3.30041 5.10057C3.87681 3.99206 4.90638 3.40382 6.54038 3.24941C8.83326 3.033 10.6834 2.91511 12.3629 2.87858C17.2114 2.77241 20.9427 2.73486 24.4611 2.75663C27.0275 2.77254 28.5092 3.97984 28.9929 6.44764C29.5275 9.18326 29.5199 11.995 29.5118 14.7157L29.5111 14.9463C29.4995 18.8054 29.5002 22.0115 29.5124 25.0361H29.5128Z" fill="white" fill-opacity="0.8"/>
</g>
<defs>
<clipPath id="clip0_759_3838">
<rect width="31.0606" height="30.9333" fill="white" transform="translate(0.533203 0.533356)"/>
</clipPath>
</defs>
</svg>
