<svg width="30" height="24" viewBox="0 0 30 24" fill="none" xmlns="http://www.w3.org/2000/svg">
<g clip-path="url(#clip0_759_3762)">
<path d="M29.2071 11.5341C29.1438 10.3551 29.0932 9.15501 29.0442 7.99462C28.9964 6.86457 28.9471 5.69601 28.8859 4.54714C28.7975 2.87875 27.9365 1.6633 26.3963 1.03216C25.8524 0.809448 25.1831 0.691678 24.3516 0.671806C22.1488 0.619589 19.9091 0.595454 17.743 0.571988C16.9719 0.563603 16.201 0.554827 15.4301 0.545666C15.4107 0.52962 15.3863 0.520802 15.3611 0.520789H13.5656C12.1065 0.520789 10.6475 0.52122 9.18874 0.521925C8.92174 0.521925 8.65389 0.521323 8.38698 0.520583C7.58459 0.517834 6.75477 0.515554 5.93867 0.54515C4.82444 0.585422 3.96645 0.802615 3.23875 1.2288C1.76499 2.09217 0.978849 3.32457 0.902154 4.89201C0.86175 5.71743 0.848139 6.55698 0.835058 7.36897L0.826514 7.87736C0.814698 8.55884 0.802353 9.24018 0.789483 9.9214C0.748024 12.1661 0.705088 14.4872 0.688103 16.7709C0.681246 17.6799 0.727241 18.7554 1.11958 19.8397C1.69979 21.4435 2.77004 22.4803 4.39149 23.0095C5.90006 23.4902 7.47321 23.7367 9.05624 23.7401C12.9912 23.791 17.1185 23.8151 21.9759 23.8151H22.9195C23.8122 23.8302 24.7033 23.7336 25.572 23.5274C27.5636 23.017 28.7438 21.7939 29.0799 19.8919C29.1868 19.2467 29.2611 18.5964 29.3023 17.9436C29.4478 15.9628 29.3387 13.9554 29.233 12.0139L29.2071 11.5341ZM10.8053 22.0127C9.10087 22.0075 7.27961 21.9429 5.51015 21.5081C4.79817 21.3332 4.28894 21.1284 3.88205 20.8512L12.6634 12.7596L12.9086 13.0238C13.1529 13.2874 13.4051 13.5593 13.6599 13.8289C14.3973 14.6093 15.1208 14.6732 15.9363 14.0303C16.2699 13.7675 16.587 13.47 16.8935 13.1834C17.0096 13.0745 17.1269 12.9649 17.2459 12.8558L25.8406 21.5479C25.5435 21.7926 25.1844 21.8439 24.8061 21.8979L24.6975 21.9135C24.2911 21.9677 23.8814 21.9928 23.4714 21.9886L21.0674 21.9973C17.7036 22.0098 14.2259 22.0231 10.8053 22.0127ZM24.2242 3.94834C22.9383 5.11158 21.6086 6.31431 20.3407 7.54013C19.0754 8.7633 17.8349 10.0452 16.6351 11.2853C16.1385 11.7986 15.6258 12.3285 15.1195 12.8456L4.43991 2.35106C4.51636 2.33069 4.59221 2.31012 4.66746 2.28933C4.95862 2.20994 5.23365 2.13475 5.51458 2.07947C6.91143 1.80464 8.34964 1.84202 9.74059 1.8787C10.0513 1.88673 10.3618 1.89468 10.6723 1.89975C11.1447 1.90715 11.6256 1.92293 12.0904 1.93826C12.4941 1.95147 12.9115 1.96521 13.3226 1.97335C14.4788 1.99626 15.6349 2.01824 16.7911 2.03932C19.2903 2.08604 21.8743 2.13451 24.4155 2.1956C24.7728 2.21536 25.1279 2.26546 25.4768 2.34538C25.6139 2.37276 25.756 2.40085 25.8972 2.42537V2.42888C25.3413 2.93784 24.7735 3.45153 24.224 3.94875L24.2242 3.94834ZM6.23743 16.7147C5.16634 17.7352 4.06002 18.7894 2.9902 19.8667C2.54586 18.8164 2.31556 17.9543 2.24699 17.0899C2.0571 14.6918 2.13601 12.3049 2.2337 10.0656C2.27832 9.04441 2.29615 8.00577 2.31345 7.00129C2.32527 6.31846 2.33751 5.61236 2.35797 4.91895C2.37907 4.18348 2.62456 3.66742 3.17355 3.21132L11.5182 11.4251C9.81939 13.3014 7.99855 15.0365 6.2368 16.7156L6.23743 16.7147ZM27.2741 19.6874C27.235 19.898 27.1828 20.1061 27.1177 20.3101C27.0943 20.3892 27.0709 20.4686 27.0488 20.5479L27.0152 20.5591L18.1698 11.9225C21.2276 8.76202 24.1275 6.0666 27.028 3.68832C27.0404 3.74423 27.0531 3.79866 27.0655 3.85172C27.1172 4.04433 27.1515 4.24113 27.1681 4.43989C27.2659 6.44019 27.3456 8.41424 27.4042 9.91076C27.4591 11.3151 27.506 12.7006 27.5435 14.0292C27.5905 15.7114 27.5957 17.6997 27.2734 19.6878L27.2741 19.6874Z" fill="white" fill-opacity="0.8"/>
</g>
<defs>
<clipPath id="clip0_759_3762">
<rect width="28.8" height="23.36" fill="white" transform="translate(0.599609 0.480011)"/>
</clipPath>
</defs>
</svg>
