<svg width="28" height="28" viewBox="0 0 28 28" fill="none" xmlns="http://www.w3.org/2000/svg">
<g id="map" clip-path="url(#clip0_759_3782)">
<path id="Vector" d="M14.552 0.736642C17.693 0.736642 20.8338 0.736642 23.9746 0.736642C24.2176 0.736642 24.4605 0.728387 24.7035 0.72562C26.0061 0.711678 26.857 1.47801 26.9931 2.79474C27.0125 2.98284 27.0129 3.17272 27.0149 3.36182C27.0436 5.4613 27.0668 7.56098 27.0993 9.66034C27.1444 12.5749 27.2013 15.4893 27.2436 18.4039C27.2746 20.5483 26.9905 22.6704 26.7619 24.7951C26.676 25.5939 26.1348 26.1008 25.5206 26.5307C25.3839 26.6302 25.2327 26.7078 25.0725 26.7607C24.1643 27.0357 23.2736 27.3471 22.294 27.3308C17.0032 27.241 11.7122 27.1694 6.42087 27.116C5.7696 27.1157 5.11875 27.1494 4.47092 27.2171C3.10338 27.345 1.9695 26.9192 1.10076 25.8259C0.849511 25.5147 0.71561 25.1232 0.722942 24.7213C0.747204 22.5269 0.7754 20.3327 0.80753 18.1386C0.859771 14.9213 0.924036 11.7041 0.977588 8.48669C1.00316 6.95374 0.948957 5.41584 1.05409 3.88887C1.15169 2.47255 1.92655 1.58736 3.13846 1.2605C4.1542 0.98642 5.17617 1.00829 6.19617 0.976096C8.98054 0.887576 11.7666 0.852397 14.552 0.795965V0.736642ZM14.4812 8.18396C14.4867 8.22617 14.4947 8.26798 14.5052 8.30921C15.251 10.5861 16.0043 12.8605 16.7354 15.1423C16.8254 15.4233 17.0062 15.514 17.2303 15.6206C18.7183 16.3282 20.2021 17.0449 21.6875 17.758C21.803 17.8133 21.9207 17.8642 22.0101 17.9048C22.0663 17.8838 22.0887 17.8827 22.1001 17.8702C23.1602 16.75 24.2231 15.6325 25.2725 14.5021C25.3802 14.3755 25.4406 14.2149 25.4433 14.0479C25.4324 12.9125 25.4515 11.773 25.3617 10.643C25.2444 8.9432 25.24 7.23738 25.3482 5.53701C25.3795 4.78329 25.3386 4.02825 25.2262 3.28252C25.1345 2.61497 25.0426 2.4784 24.4109 2.42108C24.1152 2.39431 23.8207 2.33378 23.5256 2.32659C22.8715 2.31066 22.2159 2.33763 21.5627 2.30886C21.4246 2.30249 21.2865 2.32532 21.1574 2.37592C21.0285 2.42652 20.9112 2.5038 20.8133 2.60278C18.7167 4.45794 16.6142 6.30568 14.4807 8.18396H14.4812ZM8.40808 2.33058C7.56294 2.33058 6.74316 2.32734 5.92327 2.33188C5.49387 2.33431 5.06152 2.32085 4.63562 2.36511C3.12141 2.52146 2.40272 3.34382 2.50021 4.99748C2.63803 7.3364 2.68098 9.68402 2.6766 12.0278C2.67245 14.2778 2.55551 16.5276 2.49081 18.7774C2.48688 18.9137 2.50688 19.0506 2.51628 19.1963L11.8496 13.0378C10.8507 9.4278 9.66185 5.91156 8.40808 2.33004V2.33058ZM12.2811 14.7242C12.2014 14.7625 12.1836 14.769 12.1678 14.779C8.97471 16.8067 5.78109 18.8336 2.58699 20.8596C2.51431 20.9008 2.45481 20.9621 2.41558 21.0366C2.37634 21.1109 2.35903 21.195 2.36568 21.2791C2.36874 22.168 2.33486 23.0584 2.37726 23.9452C2.41792 24.7954 2.89507 25.439 3.60491 25.5773C4.37048 25.7457 5.1497 25.8429 5.93278 25.8673C9.03387 25.8869 12.1352 25.8537 15.2362 25.838C15.3933 25.8372 15.5502 25.8167 15.7425 25.803C14.3089 22.1771 13.4624 18.4193 12.2811 14.7236V14.7242ZM17.5496 17.329L17.4103 17.4257C18.3531 20.2235 19.2958 23.0213 20.2574 25.8756C21.225 25.8756 22.1789 25.9115 23.1282 25.8606C23.6109 25.8194 24.0851 25.7073 24.5358 25.5277C25.0324 25.345 25.4071 24.9828 25.4393 24.4062C25.4877 23.5402 25.5125 22.6735 25.5137 21.8059C25.5137 21.6896 25.3389 21.5357 25.2096 21.4629C24.5085 21.0673 23.7969 20.691 23.088 20.3094C21.2421 19.3151 19.396 18.3214 17.5496 17.3284V17.329ZM9.79562 2.38169C9.84458 2.54169 9.87431 2.6646 9.91912 2.78167C10.3307 3.8563 10.7641 4.92278 11.1541 6.00516C12.0817 8.57789 12.8658 11.1956 13.5946 13.8339C14.3278 16.4881 15.1474 19.1182 15.9576 21.7499C16.3782 23.1164 16.8604 24.4635 17.3087 25.8009H18.5254C15.5583 18.1019 13.4577 10.159 10.8033 2.38169H9.79562ZM13.9824 6.73601L19.2247 2.34771H12.3394C12.9021 3.85045 13.4414 5.29048 13.9824 6.73546V6.73601ZM25.5434 19.8148V16.2463L25.437 16.2118L23.3744 18.6543L25.5434 19.8148Z" fill="white" fill-opacity="0.8"/>
<path id="Vector_2" d="M20.6168 10.6142C20.7401 10.6634 20.8598 10.7213 20.975 10.7875C22.0369 11.4525 23.097 12.1207 24.1553 12.7919C24.5924 13.0676 24.6953 13.4438 24.4459 13.8984C24.3711 14.0292 24.2839 14.1522 24.1854 14.2658C23.6913 14.8562 23.1974 15.4467 22.6929 16.0278C22.5716 16.1675 22.4023 16.2631 22.2688 16.393C21.9146 16.7389 21.5366 16.7131 21.1438 16.4805C20.5967 16.156 20.0513 15.8289 19.5077 15.4994C19.1562 15.2856 18.8005 15.0768 18.4625 14.8424C17.9133 14.4615 17.7907 13.9263 18.1633 13.3801C18.7247 12.557 19.3194 11.7571 19.9052 10.9511C19.9817 10.8341 20.0886 10.7407 20.2142 10.6813C20.3398 10.6218 20.4791 10.5986 20.6168 10.6142ZM20.5959 11.9064L19.0877 13.8013L21.5429 15.1825L23.0904 13.4075L20.5959 11.9064Z" fill="white" fill-opacity="0.8"/>
<path id="Vector_3" d="M8.9932 9.42319C9.22172 9.56548 9.50369 9.66363 9.67025 9.86136C9.98435 10.2336 10.2595 10.6378 10.4915 11.0674C10.6469 11.3708 10.6923 11.7197 10.6199 12.0535C10.5475 12.3872 10.3618 12.6847 10.0951 12.8941C9.52899 13.3239 8.93922 13.7208 8.32861 14.0827C7.71845 14.4426 7.20806 14.2486 6.92129 13.5859C6.70468 13.0856 6.52227 12.5771 6.12347 12.1765C5.92774 11.9798 5.96162 11.7182 6.19735 11.4683C6.43367 11.2281 6.68778 11.0064 6.95746 10.8054C7.43003 10.4386 7.90967 10.0813 8.39637 9.73353C8.5883 9.6168 8.78768 9.51315 8.9932 9.42319ZM7.93222 12.6732L9.26839 11.8051L8.7438 11.0747L7.37517 11.953L7.93222 12.6732Z" fill="white" fill-opacity="0.8"/>
<path id="Vector_4" d="M7.22568 18.6587C7.64644 18.63 7.90656 18.7611 8.05629 19.0135C8.38077 19.5623 8.72055 20.1123 8.95509 20.7022C9.18634 21.284 8.84885 21.8066 8.44885 22.1594C7.86194 22.6568 7.23362 23.1018 6.57092 23.4894C6.05366 23.8052 5.64196 23.675 5.32874 23.1599C5.00622 22.6288 4.7071 22.0823 4.42109 21.53C4.1754 21.0557 4.26065 20.6064 4.65595 20.2492C4.86826 20.0644 5.09534 19.8976 5.33487 19.7507C5.82455 19.4382 6.31968 19.1344 6.82022 18.8396C6.95079 18.7692 7.08631 18.7088 7.22568 18.6587ZM7.14371 20.1635L5.51912 21.0308L6.33126 22.0205L7.6036 21.182L7.14371 20.1635Z" fill="white" fill-opacity="0.8"/>
</g>
<defs>
<clipPath id="clip0_759_3782">
<rect width="26.6667" height="26.6667" fill="white" transform="translate(0.666016 0.666672)"/>
</clipPath>
</defs>
</svg>
