<svg width="18" height="30" viewBox="0 0 18 30" fill="none" xmlns="http://www.w3.org/2000/svg">
<g id="phone" clip-path="url(#clip0_759_3764)">
<path id="Vector" d="M17.6737 16.6262C17.6737 19.3382 17.6786 22.0502 17.6697 24.7622C17.6719 25.3195 17.6395 25.8764 17.5728 26.4298C17.5395 26.7612 17.4335 27.0811 17.2625 27.3669C16.76 28.1283 15.9896 28.742 15.0667 28.9348C14.3244 29.1039 13.5685 29.2062 12.808 29.2404C10.2431 29.3061 7.67686 29.3252 5.11094 29.343C4.59265 29.3466 4.07312 29.2725 3.55505 29.2244C2.11059 29.0904 1.35659 28.1475 0.957984 26.8873C0.759129 26.2584 0.721726 25.5756 0.638656 24.9138C0.348357 22.6017 0.411554 20.2789 0.441031 17.9571C0.465222 16.044 0.485466 14.1309 0.501767 12.2179C0.517845 10.026 0.500763 7.83346 0.5471 5.64231C0.56381 4.90105 0.661948 4.16387 0.839744 3.44403C1.16856 2.11399 2.09529 1.42958 3.42855 1.16101C6.52459 0.537453 9.64218 0.621212 12.7655 0.784971C13.8709 0.842906 14.8615 1.23769 15.783 1.83547C16.4345 2.25177 16.9138 2.88909 17.1329 3.63034C17.3105 4.23523 17.4199 4.8581 17.459 5.48729C17.5633 7.47122 17.6371 9.45669 17.6806 11.4437C17.716 13.1705 17.688 14.8986 17.688 16.6262H17.6737ZM2.39397 23.3706C6.94919 22.9683 11.5237 22.8275 16.095 22.9491C16.1083 22.7162 16.1266 22.5346 16.1278 22.3529C16.1561 17.9512 16.0719 13.4378 16.0956 9.03568C16.0975 8.81321 16.0826 8.59092 16.0509 8.37071C15.9022 7.36171 15.8679 6.46367 15.6962 5.45857C15.6175 5.02261 15.5104 4.59223 15.3757 4.17016C15.3065 3.94816 15.1886 3.74443 15.0306 3.57381C14.8727 3.4032 14.6785 3.27002 14.4623 3.18404C13.837 2.89437 13.1583 2.7371 12.4692 2.72205C11.7441 2.70876 11.0178 2.71745 10.2941 2.68374C8.1103 2.58193 5.9508 2.77615 3.79901 3.13984C3.11402 3.2556 2.73976 3.62698 2.59494 4.27007C2.53647 4.52329 2.49913 4.7809 2.48329 5.04029C2.45683 5.52219 2.44734 6.00535 2.44399 6.48803C2.41599 10.5736 2.3895 14.6595 2.36449 18.7455C2.35667 19.934 2.33959 21.1225 2.33658 22.311C2.33646 22.6394 2.3713 22.968 2.39397 23.3706ZM16.0181 24.2314L2.45716 24.3912C2.5457 25.2396 2.5045 26.022 2.74534 26.7661C2.93035 27.3375 3.32672 27.7022 3.97264 27.713C4.21414 27.7172 4.45531 27.7364 4.69671 27.7373C5.47728 27.7402 6.25774 27.7386 7.03831 27.7373C9.13829 27.7343 11.2385 27.7461 13.338 27.7167C13.8937 27.7052 14.4459 27.6265 14.9826 27.4823C15.4773 27.3519 15.9444 27.0398 16.0001 26.4923C16.0729 25.7791 16.0181 25.0533 16.0181 24.2315V24.2314Z" fill="white" fill-opacity="0.8"/>
<path id="Vector_2" d="M10.4416 25.8759C10.4399 26.4713 9.87597 26.9891 9.21532 27.0016C9.07102 27.0054 8.92744 26.9799 8.79323 26.9267C8.65903 26.8735 8.53697 26.7938 8.43439 26.6923C8.33182 26.5907 8.25084 26.4694 8.19636 26.3358C8.14187 26.2022 8.11498 26.0589 8.11733 25.9145C8.12721 25.6054 8.25393 25.3115 8.47195 25.0921C8.68998 24.8726 8.98311 24.7439 9.29226 24.732C9.87185 24.7246 10.443 25.2933 10.4416 25.8759Z" fill="white" fill-opacity="0.8"/>
</g>
<defs>
<clipPath id="clip0_759_3764">
<rect width="17.418" height="28.8" fill="white" transform="translate(0.359375 0.599998)"/>
</clipPath>
</defs>
</svg>
