<svg width="30" height="30" viewBox="0 0 30 30" fill="none" xmlns="http://www.w3.org/2000/svg">
<g id="ri:behance-line">
<path id="Vector" d="M9.39944 13.7556C10.0595 13.7556 10.6926 13.4934 11.1593 13.0266C11.6261 12.5599 11.8883 11.9268 11.8883 11.2667C11.8883 10.6066 11.6261 9.97356 11.1593 9.50681C10.6926 9.04005 10.0595 8.77783 9.39944 8.77783H3.79944V13.7556H9.39944ZM10.6439 16.2445H3.79944V21.2223H10.6439C11.304 21.2223 11.937 20.9601 12.4038 20.4933C12.8705 20.0265 13.1328 19.3935 13.1328 18.7334C13.1328 18.0733 12.8705 17.4402 12.4038 16.9735C11.937 16.5067 11.304 16.2445 10.6439 16.2445ZM13.2112 14.4674C14.1439 15.0283 14.8671 15.8794 15.2701 16.8905C15.6731 17.9015 15.7335 19.0168 15.4423 20.0655C15.151 21.1142 14.5241 22.0385 13.6574 22.6969C12.7908 23.3554 11.7323 23.7116 10.6439 23.7112H1.31055V6.28894H9.39944C10.347 6.28905 11.2749 6.55964 12.0741 7.06892C12.8732 7.5782 13.5104 8.305 13.9107 9.16391C14.311 10.0228 14.4578 10.9781 14.3339 11.9176C14.21 12.8571 13.8205 13.7417 13.2112 14.4674ZM19.355 7.53338H26.1994V9.40005H19.355V7.53338ZM28.6883 18.1112H19.355V18.4223C19.3547 19.191 19.6133 19.9375 20.089 20.5413C20.5647 21.1452 21.2299 21.5713 21.9773 21.751C22.7248 21.9306 23.511 21.8534 24.2092 21.5317C24.9074 21.2101 25.477 20.6627 25.8261 19.9778H28.4817C28.1026 21.357 27.2364 22.552 26.0437 23.3415C24.8509 24.131 23.4125 24.4614 21.9948 24.2716C20.5771 24.0817 19.2762 23.3844 18.3332 22.3089C17.3902 21.2335 16.869 19.8526 16.8661 18.4223V16.5556C16.8661 14.9879 17.4889 13.4844 18.5974 12.3758C19.706 11.2673 21.2095 10.6445 22.7772 10.6445C24.3449 10.6445 25.8484 11.2673 26.957 12.3758C28.0655 13.4844 28.6883 14.9879 28.6883 16.5556V18.1112ZM26.07 15.6223C25.8666 14.9056 25.435 14.2748 24.8406 13.8256C24.2463 13.3764 23.5216 13.1334 22.7766 13.1334C22.0316 13.1334 21.3069 13.3764 20.7126 13.8256C20.1182 14.2748 19.6866 14.9056 19.4832 15.6223H26.07Z" fill="white" fill-opacity="0.8"/>
</g>
</svg>
