<svg width="32" height="32" viewBox="0 0 32 32" fill="none" xmlns="http://www.w3.org/2000/svg">
<g clip-path="url(#clip0_850_3751)">
<path d="M31.9119 17.3152C31.9258 14.2432 31.8487 11.5562 31.6763 9.10112C31.4351 5.66408 29.8973 3.77057 27.2295 3.62391C26.0967 3.56169 24.9434 3.60912 23.828 3.65357C23.321 3.67416 22.7967 3.69563 22.2815 3.70629C22.115 3.7097 21.9494 3.70863 21.8066 3.70774H21.73C21.6719 3.50108 21.6162 3.29961 21.5615 3.10198C21.4274 2.61798 21.2998 2.16007 21.1606 1.70644C21.1553 1.68377 21.1505 1.66083 21.1452 1.63831C21.0796 1.32441 20.9441 1.03996 20.7544 0.817701C20.4036 0.310886 19.9192 0.0647867 19.3042 0.0841941C18.4695 0.111305 17.6203 0.130563 16.7992 0.149081C15.5409 0.177526 14.2398 0.206878 12.9605 0.265545C12.2735 0.296953 11.8975 0.446019 11.654 0.826019C11.4938 0.944206 11.3626 1.11464 11.2746 1.319C10.9698 2.12598 10.7947 2.99942 10.7591 3.89011H10.5525C10.2243 3.89011 9.9212 3.88897 9.61797 3.89134C9.25479 3.89386 8.89147 3.89386 8.52817 3.89401C7.64419 3.89401 6.72995 3.894 5.83098 3.93163C4.73589 3.98188 3.65806 4.28711 2.65323 4.8316C1.23929 5.58715 0.532537 6.82847 0.492448 8.62491C0.465326 9.8458 0.427266 11.0872 0.390507 12.2875C0.358626 13.3278 0.325593 14.4035 0.299778 15.4622C0.285979 16.0316 0.285218 16.6108 0.284385 17.1707C0.282958 18.1549 0.281442 19.1727 0.208758 20.1623C0.0247286 22.6667 0.0571909 24.6764 0.310931 26.4866C0.540284 28.122 1.15554 29.4436 2.09056 30.3088C2.9418 31.1189 3.97543 31.5765 5.04624 31.6174C5.60566 31.6371 6.16504 31.6586 6.72438 31.6817C8.11418 31.7373 9.55119 31.7946 10.9657 31.8084C13.963 31.838 16.7736 31.8528 19.4721 31.8528C20.7084 31.8528 21.9237 31.8497 23.1177 31.8436C24.467 31.837 25.9251 31.7595 27.5759 31.6066C29.6577 31.414 31.0725 29.9918 31.6661 27.4924C31.8682 26.6558 31.976 25.7881 31.9863 24.9146C31.9922 23.6441 31.9704 22.3531 31.9495 21.1047C31.9278 19.862 31.9057 18.5779 31.9119 17.3152ZM30.1673 21.3589C30.1783 22.5681 30.1897 23.7774 30.2016 24.9867C30.2109 25.9281 30.0336 26.8579 29.6855 27.6936C29.3685 28.4639 28.9004 28.9213 28.2907 29.0518C27.6206 29.2187 26.9409 29.318 26.2581 29.349C23.8417 29.3713 21.3845 29.3679 19.0079 29.3651C18.1492 29.3639 17.2908 29.3632 16.4324 29.3627C15.5549 29.3627 14.6777 29.3632 13.8008 29.3641C11.6821 29.366 9.49171 29.3682 7.33759 29.3534C6.5284 29.346 5.72009 29.2853 4.91606 29.1713C3.42277 28.9622 2.36201 27.6666 2.07877 25.706C1.764 23.5282 1.80007 21.294 1.83481 19.134C1.84087 18.757 1.84673 18.3802 1.85125 18.0036C1.85846 17.3672 1.86932 16.7285 1.88383 16.0879C2.20331 16.1662 2.5271 16.2143 2.85241 16.2318C3.62921 16.2641 4.41873 16.2614 5.18245 16.2589C5.54622 16.2579 5.90987 16.2564 6.27329 16.2589C6.41449 16.2599 6.55389 16.27 6.71532 16.2816C6.75862 16.2848 6.803 16.2879 6.84892 16.291C6.84892 16.4722 6.84801 16.6485 6.84729 16.8213C6.84551 17.2953 6.84369 17.743 6.85118 18.1915C6.86724 19.1493 7.18616 19.6056 7.91752 19.7174C8.60884 19.811 9.30393 19.8549 9.9993 19.8488H10.0239C11.3626 19.8488 11.8678 19.2076 11.8846 17.4933C11.8876 17.191 11.8868 16.8884 11.8859 16.5799V16.295H20.8239C20.8239 16.3312 20.8239 16.3669 20.8239 16.402C20.823 16.5865 20.822 16.7576 20.8261 16.9276C20.8334 17.2398 20.8408 17.4999 20.8627 17.7697C20.9448 18.7842 21.3028 19.2161 22.0999 19.2602C22.7357 19.2955 23.4169 19.2899 24.124 19.242C24.815 19.1958 25.2335 18.7116 25.3341 17.8417C25.3777 17.4645 25.3966 17.079 25.4165 16.6713C25.4238 16.521 25.4314 16.3657 25.4402 16.2038L26.4365 16.2045C27.4189 16.2053 28.38 16.2063 29.3408 16.2005C29.5999 16.2023 29.8589 16.1875 30.1168 16.1561C30.1357 17.9044 30.1516 19.6484 30.1673 21.3589ZM14.1078 2.13324C14.9304 2.09546 15.7647 2.08126 16.5835 2.07103C17.4499 2.09755 18.3399 2.12394 19.2177 2.14112C19.291 2.14087 19.3641 2.1504 19.4357 2.16955C19.5189 2.28046 19.5726 2.42092 19.5889 2.57146C19.6443 2.87041 19.7165 3.16413 19.805 3.45044C19.8214 3.57943 19.8394 3.70829 19.859 3.83709H12.4111C12.712 2.19769 12.7318 2.19665 14.1084 2.13339L14.1078 2.13324ZM23.7949 16.2933C23.7904 16.3411 23.786 16.3885 23.7816 16.4358C23.7645 16.6731 23.7335 16.9085 23.6894 17.1404C23.6598 17.2368 23.6017 17.3156 23.527 17.3605C23.1677 17.4087 22.8051 17.43 22.4214 17.4527C22.3197 17.4586 22.2168 17.4647 22.1121 17.4713L22.0051 16.2933H23.7949ZM10.156 16.3097V17.7256H8.31151L8.16177 16.3833C8.54957 16.2075 9.48984 16.1716 10.1566 16.3097H10.156ZM29.9524 13.9592C29.9124 13.9627 29.8725 13.9662 29.8326 13.9682C29.6238 13.9789 29.4151 13.9914 29.2064 14.004C28.7533 14.0313 28.2846 14.0593 27.8245 14.0669C25.6855 14.1023 23.5465 14.1351 21.4075 14.1653C19.4984 14.1934 17.5892 14.2225 15.6801 14.2524C12.0196 14.3116 8.35918 14.3739 4.69888 14.4391L1.92175 14.4875C1.95161 13.3838 1.98636 12.2845 2.02074 11.2036C2.03882 10.6368 2.05665 10.0701 2.07418 9.50361C2.14008 7.34628 2.45719 6.84226 4.07075 6.33115C5.06455 6.01171 6.08523 5.83994 7.11146 5.81943C9.24155 5.78728 11.4079 5.79177 13.5032 5.79592C15.2095 5.79948 16.9743 5.80318 18.7099 5.78689C19.6973 5.77785 20.6987 5.72167 21.6676 5.66745C22.4381 5.62434 23.2347 5.57976 24.0179 5.55931C25.0917 5.53102 26.2024 5.50197 27.2911 5.64286C28.8876 5.84923 29.6227 6.77308 29.8282 8.8313C29.9539 9.955 30.0325 11.0861 30.0638 12.22C30.0726 12.7951 30.081 13.3716 30.0886 13.9496C30.043 13.9516 29.9974 13.9556 29.953 13.9592H29.9524Z" fill="white" fill-opacity="0.8"/>
</g>
<defs>
<clipPath id="clip0_850_3751">
<rect width="32" height="32" fill="white"/>
</clipPath>
</defs>
</svg>
