<svg width="32" height="32" viewBox="0 0 32 32" fill="none" xmlns="http://www.w3.org/2000/svg">
<g id="Frame 284" clip-path="url(#clip0_759_3815)">
<g id="Group 227">
<circle id="Ellipse 18" cx="15.8563" cy="15.8563" r="15.3188" stroke="white" stroke-opacity="0.8" stroke-width="1.075"/>
<path id="Vector" d="M3.04032 13.9912C2.81148 14.0729 2.59088 14.1761 2.38143 14.2993C2.31562 14.332 2.25861 14.3799 2.21518 14.4392C2.17176 14.4985 2.14319 14.5673 2.13189 14.64C2.12139 14.7728 2.19133 14.9057 2.33913 15.0348C2.46207 15.1353 2.59456 15.2235 2.7347 15.2981C2.84219 15.3595 2.95165 15.4176 3.06112 15.4756C3.21784 15.5586 3.37991 15.644 3.53089 15.7389C5.57827 17.0207 7.44139 18.1572 9.48471 19.0754C9.48035 19.1486 9.47549 19.2215 9.47054 19.2942C9.45667 19.4995 9.44241 19.7117 9.44211 19.9212C9.44164 20.2376 9.44039 20.5542 9.43834 20.8709C9.43309 21.8753 9.42764 22.9138 9.46143 23.9352C9.47361 24.3034 9.60576 24.5667 9.83352 24.6765C10.073 24.7916 10.3808 24.7246 10.7002 24.4868C10.8154 24.4011 10.9335 24.3047 11.0611 24.1923C11.6208 23.6985 12.1798 23.2038 12.7441 22.7044L13.2554 22.2518C13.2593 22.2547 13.2631 22.2575 13.2665 22.2606L13.7394 22.6675C14.2777 23.1304 14.8342 23.609 15.3775 24.0847C15.5323 24.2199 15.6879 24.3544 15.8444 24.4881C16.3215 24.8979 16.8152 25.3217 17.2587 25.7758C17.4936 26.0162 17.7221 26.1292 17.9966 26.1292C18.115 26.1275 18.2326 26.11 18.3464 26.0773C18.7469 25.9683 19.0054 25.7235 19.1844 25.2844C19.8591 23.6302 20.5496 21.9499 21.2173 20.3251C21.7654 18.9904 22.3132 17.6556 22.8604 16.3206C24.0394 13.4547 25.0565 10.5249 25.9069 7.54482C26.0099 7.19916 26.0823 6.84509 26.1233 6.48673C26.1371 6.40369 26.1319 6.31864 26.1085 6.23784C26.0849 6.15704 26.0435 6.08257 25.9873 6.01993C25.9196 5.95881 25.8391 5.91362 25.7516 5.88769C25.6642 5.86176 25.5721 5.85575 25.4821 5.87008C25.3628 5.8844 25.2452 5.91094 25.1314 5.94934L25.116 5.95401C24.8602 6.03033 24.6038 6.10445 24.3473 6.17868C23.7514 6.35103 23.1352 6.52924 22.5374 6.73242C18.219 8.20083 13.8394 9.79945 9.52017 11.4839C8.27443 11.9696 7.00599 12.4594 5.77927 12.9328C4.86576 13.2848 3.95277 13.6376 3.04032 13.9912ZM11.2607 18.518C11.4985 18.3193 11.7239 18.1315 11.9552 17.955C12.862 17.2622 13.7698 16.5705 14.6783 15.8802C16.4635 14.5217 18.3095 13.117 20.1151 11.7222C20.6672 11.296 21.1913 10.8169 21.698 10.3545C21.872 10.1959 22.0459 10.0366 22.2211 9.87953C22.361 9.75426 22.5949 9.54464 22.4652 9.13512C22.461 9.12174 22.454 9.10938 22.4448 9.09883C22.4356 9.08826 22.4243 9.07975 22.4116 9.07378C22.399 9.06787 22.3852 9.06459 22.3711 9.06418C22.3572 9.06376 22.3432 9.06622 22.3302 9.07138C22.276 9.09329 22.2237 9.11262 22.1733 9.13086C22.0683 9.16677 21.966 9.21019 21.8673 9.2608C18.5165 11.0811 15.6017 13.4682 12.783 15.7768C12.1455 16.2988 11.5447 16.8373 10.9092 17.4067C10.6393 17.6487 10.3667 17.8916 10.0914 18.1356L3.8044 14.7282C3.84064 14.7058 3.87868 14.6865 3.91813 14.6705C4.92926 14.2896 5.93999 13.9073 6.95032 13.5236C9.42428 12.586 11.9828 11.6164 14.5097 10.6941C16.7601 9.87269 19.0629 9.07693 21.2899 8.30735C22.0304 8.05152 22.7708 7.79518 23.511 7.53836C23.7978 7.43866 24.0872 7.36066 24.3937 7.2782C24.475 7.25639 24.5565 7.2343 24.6384 7.2119C23.4046 11.1242 21.8305 14.9617 20.3075 18.6748C19.5071 20.6259 18.6802 22.642 17.907 24.6569C15.8054 22.964 13.7668 21.1744 11.7947 19.4428C11.5284 19.2087 11.2614 18.9745 10.994 18.7403C11.0849 18.6644 11.1736 18.5905 11.2605 18.518H11.2607ZM12.4288 21.5024L10.6258 23.0309L10.4829 19.7041L12.4288 21.5024Z" fill="white" fill-opacity="0.8"/>
</g>
</g>
<defs>
<clipPath id="clip0_759_3815">
<rect width="32" height="32" fill="white"/>
</clipPath>
</defs>
</svg>
