<svg width="32" height="32" viewBox="0 0 32 32" fill="none" xmlns="http://www.w3.org/2000/svg">
<g id="Frame 283" clip-path="url(#clip0_759_3814)">
<g id="Group 226">
<path id="Vector" d="M4.52344 10.5984C4.52344 9.73094 5.11698 9.38851 5.84749 9.34285L9.24892 9.36568C9.45438 9.36568 9.63701 9.50265 9.70549 9.70811C10.4817 12.2192 11.4405 13.7716 12.5819 15.5294C12.6504 15.6663 12.7645 15.7348 12.8786 15.7348C12.97 15.7348 13.0613 15.6892 13.1298 15.575L13.1982 15.3239L13.2211 11.3746C13.2211 10.8039 12.9471 10.7126 12.3079 10.6212C12.0568 10.5756 11.897 10.3473 11.897 10.119C11.897 10.0734 11.897 10.0277 11.9199 9.98205C12.2395 9.00043 13.2439 8.4982 14.6593 8.4982L15.9377 8.47537C16.9878 8.47537 17.9466 8.93194 17.9466 10.2788V15.4609C18.0379 15.5294 18.1292 15.575 18.2433 15.575C18.426 15.575 18.6542 15.4609 18.8369 15.1641C20.0239 13.4976 21.3708 11.5116 21.5535 10.4614C21.5535 10.4158 21.5763 10.393 21.5991 10.3473C21.8502 9.84508 22.4894 9.50265 22.7634 9.41134C22.809 9.38851 22.8775 9.36568 22.9688 9.36568H26.5072L26.7355 9.38851C27.0779 9.38851 27.3291 9.61679 27.4432 9.82225C27.6486 10.1418 27.603 10.4843 27.6258 10.6212V10.781C27.2834 12.8584 24.9092 15.1869 23.9048 16.6936C23.7678 16.8762 23.6993 17.036 23.6993 17.1958C23.6993 17.3328 23.7678 17.4698 23.882 17.6067L27.2149 21.8072C27.3975 22.0583 27.4888 22.3551 27.4888 22.6062C27.4888 23.3595 26.7812 23.7933 26.0963 23.8617L25.7082 23.8846H22.2383C22.1698 23.8846 22.1242 23.9074 22.0557 23.9074C21.6676 23.9074 21.348 23.7019 21.1197 23.4737C20.3892 22.5834 19.6815 21.6702 18.9738 20.7799C18.8369 20.5973 18.7912 20.5744 18.6542 20.4831C18.4944 21.1452 18.3575 21.83 18.1977 22.5149L18.1292 22.9029C18.015 23.3139 17.7183 23.7476 17.1704 23.8617L16.8508 23.8846H14.6136C10.6643 23.8846 7.12588 18.2688 4.63758 11.2604C4.56909 11.0778 4.52344 10.8267 4.52344 10.5984ZM18.2433 16.511C17.6498 16.511 16.9878 16.1686 16.9878 15.5294V10.2788C16.9878 9.66245 16.7138 9.43417 15.9605 9.43417L14.6593 9.47982C13.9288 9.47982 13.5178 9.59397 13.1754 9.82225C13.7005 10.0734 14.1799 10.4158 14.1799 11.3746V15.3924C14.1114 16.1914 13.4494 16.7164 12.8102 16.7164C12.3764 16.7164 11.9883 16.4653 11.7601 16.0544C10.7328 14.5021 9.86529 13.0411 9.11195 10.9408L8.9065 10.3473L5.87032 10.3245C5.4594 10.3245 5.50506 10.3473 5.50506 10.5528C5.50506 10.6897 5.52789 10.8724 5.55072 10.9865L6.03011 12.2649C8.51841 18.7025 11.6459 22.9258 14.6136 22.9258H16.8965C17.2161 22.9258 17.1932 22.5377 17.2617 22.3094L17.6954 20.3005C17.7868 20.095 17.8552 19.9124 18.015 19.7526C18.1977 19.57 18.4031 19.5015 18.6086 19.5015C19.0423 19.5015 19.4532 19.8439 19.7272 20.1635L21.6676 22.629C21.8274 22.8801 21.9644 22.9258 22.0557 22.9258H25.8224C26.1876 22.9258 26.5072 22.8116 26.5072 22.5834C26.5072 22.5149 26.4844 22.4236 26.4387 22.3551L23.1286 18.2231C22.8547 17.8807 22.7405 17.5383 22.7405 17.1958C22.7405 16.8306 22.8775 16.4653 23.1058 16.1457C24.0646 14.7075 26.1191 12.653 26.5985 10.9637L26.667 10.6669C26.6442 10.5528 26.6442 10.4614 26.6214 10.3473H23.0373C22.809 10.4386 22.6264 10.5756 22.4894 10.7582L22.3524 11.192C21.8274 12.653 20.3892 14.6619 19.3619 16.0544C19.0195 16.374 18.6314 16.511 18.2433 16.511Z" fill="white" fill-opacity="0.8"/>
<path id="Vector 55" d="M1.68443 7.77641C1.61895 11.9344 1.52728 20.3289 1.68443 20.6432C1.68443 21.0688 1.68443 22.128 2.26486 26.155C2.79529 29.8351 5.67862 30.4979 7.97044 30.7599C10.7533 30.7271 17.6549 30.6813 22.9981 30.7599C28.3412 30.8384 30.3973 27.3876 30.7574 25.6524C30.8884 22.2475 31.0717 14.0821 30.7574 8.6604C30.4431 3.23866 26.8286 1.75226 25.0607 1.68678C22.7689 1.6213 16.4566 1.52963 9.54195 1.68678C2.62728 1.84393 1.42249 5.81201 1.68443 7.77641Z" stroke="white" stroke-opacity="0.8" stroke-width="1.57152"/>
</g>
</g>
<defs>
<clipPath id="clip0_759_3814">
<rect width="32" height="32" fill="white"/>
</clipPath>
</defs>
</svg>
