<svg width="31" height="32" viewBox="0 0 31 32" fill="none" xmlns="http://www.w3.org/2000/svg">
<g id="whatsapp" clip-path="url(#clip0_759_3826)">
<path id="Vector" d="M1.42569 30.436C1.84668 30.3803 2.26283 30.2925 2.67048 30.1735C2.76384 30.1488 2.85698 30.1242 2.95012 30.1003C3.97186 29.8386 5.06742 29.5549 6.15687 29.2523C6.76939 29.0822 7.19177 29.1472 7.61629 29.4766C7.90628 29.702 8.26978 29.8285 8.62122 29.9509C8.6984 29.9778 8.77516 30.0048 8.85062 30.032C11.0966 30.8529 13.4193 30.9489 15.5973 30.928C15.856 30.9442 16.1157 30.9523 16.3762 30.9522C18.9693 30.9522 21.6272 30.1569 24.111 28.6311C26.9253 26.9022 28.8261 24.3956 29.7605 21.1808C30.5207 18.5648 30.56 15.6824 29.8808 12.369C29.0522 8.32652 26.8507 5.20782 23.3373 3.09815C21.6491 2.08676 19.8145 1.34262 17.8988 0.892116C16.5888 0.591804 15.2361 0.526075 13.9032 0.698042C12.2766 0.887557 10.7621 1.37288 8.98881 2.0434C5.3711 3.41118 2.82324 6.06235 1.19932 10.1486C-0.169759 13.594 -0.110588 17.4036 1.38623 22.1373C1.6732 23.0448 1.70888 23.7283 1.50546 24.4226C1.23693 25.339 0.979068 26.2741 0.729292 27.1787C0.610926 27.6081 0.491979 28.0374 0.372464 28.4667C0.350904 28.5422 0.326872 28.6176 0.302509 28.6931C0.270168 28.7921 0.237192 28.8946 0.211104 28.9988C0.0976968 29.4533 0.161385 29.8486 0.390571 30.1122C0.613396 30.3682 0.981867 30.4834 1.42569 30.436ZM3.06687 22.6279C2.48884 21.0614 2.27916 19.358 2.07639 17.7107C2.05267 17.5182 2.0288 17.3259 2.00481 17.1335C1.73326 14.9814 1.94614 12.9476 2.63758 11.089C4.01992 7.37237 6.28516 4.92539 9.56243 3.60763C10.8403 3.09406 12.3645 2.54147 13.9808 2.33654C16.4353 2.02532 18.9098 2.5821 21.7684 4.08863C24.0861 5.31013 25.7659 6.92594 26.9032 9.02807C27.6261 10.3839 28.1001 11.8584 28.3028 13.3815C28.5892 15.3623 28.8013 17.7151 28.2024 20.145C27.4756 23.0954 25.8497 25.3107 23.2317 26.9171C21.0737 28.2561 18.5741 28.9416 16.035 28.8906C14.4826 28.8677 13.1137 28.7941 11.8509 28.6652C10.6861 28.5645 9.55791 28.2079 8.54684 27.6209C8.1917 27.394 7.78051 27.27 7.35908 27.2629C7.1621 27.2639 6.96612 27.2909 6.77619 27.3432C5.96564 27.5603 5.13438 27.7573 4.3305 27.9479C3.96657 28.0341 3.60274 28.1211 3.23901 28.2089C2.99107 28.2692 2.74314 28.3316 2.44259 28.4073L2.10365 28.4925C2.19992 28.1381 2.29048 27.7966 2.37845 27.4646C2.60602 26.606 2.82107 25.795 3.07203 25.0067C3.31469 24.2453 3.40666 23.5487 3.06687 22.6279Z" fill="white" fill-opacity="0.8"/>
<path id="Vector_2" d="M5.62525 11.3872C5.8388 11.9136 6.09222 12.4229 6.38331 12.9109C8.55012 16.3355 10.971 19.3993 13.5795 22.0169C14.4235 22.8465 15.3228 23.6179 16.2712 24.3259C17.0557 24.9508 18.0279 25.2931 19.0309 25.2978C19.5482 25.294 20.0621 25.2124 20.5552 25.0559C22.0329 24.6001 23.3041 23.7747 24.4576 22.9505C24.9374 22.6079 25.2103 22.1809 25.2472 21.7157C25.2844 21.246 25.0704 20.7671 24.6284 20.3314C23.2461 18.9682 21.7643 17.6669 20.3688 16.4637C19.5416 15.7508 18.9782 15.74 18.0505 16.4191C17.9332 16.5054 17.8195 16.5972 17.7094 16.6864C17.6207 16.7583 17.5322 16.8302 17.4413 16.8991C16.5655 17.5637 16.4248 17.5605 15.5638 16.8576C15.2814 16.6365 15.0298 16.3786 14.8157 16.0909L14.6648 15.8786C14.1508 15.1822 13.6723 14.4603 13.231 13.7156C12.3214 12.1165 12.3833 11.8732 13.9659 10.823C13.9886 10.808 14.0048 10.7852 14.0117 10.7589C14.2093 10.0085 13.8871 9.51091 13.5095 9.08498C13.0883 8.60979 12.6677 8.134 12.2475 7.65767C11.7654 7.11198 11.2828 6.5666 10.7998 6.02148C10.6455 5.84727 10.4764 5.68212 10.3309 5.5409C10.0147 5.23518 9.66715 5.17263 9.29729 5.35557C8.05628 5.97004 6.67275 6.79431 5.81951 8.25168C5.22541 9.26674 5.14908 10.297 5.59236 11.3139L5.62525 11.3872ZM12.1443 10.4312C11.9569 10.5317 11.7831 10.6557 11.6269 10.8001C11.0771 11.3572 10.8582 12.0819 11.0406 12.7383C11.8678 15.7149 13.0754 17.618 14.9565 18.909C16.012 19.6335 17.0936 19.629 18.1717 18.896C18.5034 18.6705 18.8226 18.4246 19.1607 18.1643C19.2961 18.06 19.4352 17.9528 19.5803 17.843L22.8891 21.3854C21.6371 22.3758 20.5562 22.9257 19.3971 23.1642C19.0335 23.2485 18.6548 23.2439 18.2932 23.151C17.9317 23.058 17.5979 22.8794 17.32 22.63C17.0867 22.4248 16.8527 22.2199 16.6181 22.0155C15.6225 21.1466 14.593 20.2476 13.661 19.2895C11.6963 17.2687 9.86045 14.9564 8.04842 12.2201C7.86246 11.9392 7.70086 11.6319 7.54444 11.3349C7.48148 11.2151 7.41852 11.0955 7.35374 10.9769C6.8834 10.115 6.98582 9.27686 7.64977 8.55319C8.05314 8.13082 8.479 7.7305 8.92548 7.354C9.11715 7.18594 9.31442 7.01311 9.51784 6.82931L12.3221 10.3237C12.2619 10.3612 12.2024 10.397 12.1443 10.4312Z" fill="white" fill-opacity="0.8"/>
</g>
<defs>
<clipPath id="clip0_759_3826">
<rect width="30.4" height="30.5078" fill="white" transform="translate(0.0664062 0.533325)"/>
</clipPath>
</defs>
</svg>
