<svg width="32" height="32" viewBox="0 0 32 32" fill="none" xmlns="http://www.w3.org/2000/svg">
<g id="youtube" clip-path="url(#clip0_841_3885)">
<path id="Vector" d="M31.7939 16.1138C31.7711 15.5621 31.749 15.0104 31.7274 14.4589C31.689 13.4473 31.6515 12.4358 31.6148 11.4241C31.5439 9.48832 31.4705 7.48664 31.3893 5.51842C31.354 4.18538 30.9132 2.91781 30.155 1.96836C29.2321 0.807534 28.0283 0.232336 26.4743 0.209458C23.0606 0.159359 19.0194 0.101497 14.9279 0.0502392C14.2049 0.0411171 13.4698 0.0440237 12.7594 0.0467748C12.3598 0.0482228 11.96 0.0490305 11.5599 0.0493201C10.9864 0.0486444 10.413 0.0456951 9.83959 0.0404824C8.55021 0.031505 7.21784 0.0218014 5.90701 0.052643C4.74376 0.0800095 3.77975 0.370373 2.96017 0.940581C1.27226 2.11488 0.373451 3.82852 0.289876 6.03391C0.244396 7.23572 0.228701 8.45896 0.213698 9.64151L0.208661 10.0325C0.190219 11.4351 0.173535 12.8377 0.158609 14.2403C0.130126 16.7643 0.10071 19.3744 0.0558161 21.9408C0.0283875 23.5114 0.0923693 25.3551 0.775739 27.1206C1.36099 28.6327 2.12783 29.6146 3.18923 30.2103C4.13052 30.7276 5.12088 31.0963 6.13686 31.3074C7.92089 31.7017 9.75134 31.7464 11.5214 31.7896L11.6663 31.7932C11.9631 31.8004 12.2665 31.8295 12.5598 31.8575C12.6979 31.8706 12.8361 31.8838 12.9741 31.895H12.9819H25.0169C25.0214 31.895 25.0258 31.8947 25.0304 31.894C25.2481 31.8635 25.4661 31.8372 25.6841 31.8107C26.1557 31.7536 26.6434 31.6949 27.1192 31.5935C29.6601 31.0533 31.3581 28.9917 31.6613 26.0788C31.9076 23.6222 31.9848 21.1443 31.892 18.6714C31.8646 17.8186 31.8287 16.952 31.7939 16.1138ZM29.889 18.6042C29.8697 21.0092 29.7569 23.4315 29.633 25.9081C29.5221 28.1274 27.965 29.0836 26.6652 29.228C26.1448 29.2859 25.6228 29.3161 25.1137 29.3183L22.854 29.3285C19.1779 29.3451 15.3766 29.3631 11.6383 29.3525C9.51996 29.3465 7.45295 29.2889 5.45606 28.6554C4.84535 28.4679 4.25409 28.1945 3.69384 27.8405C3.06463 27.4341 2.61204 26.7152 2.31068 25.6428C1.89997 24.1372 1.69474 22.5576 1.7034 20.9688C1.69167 18.9416 1.72134 16.8793 1.74936 14.8849L1.7681 13.5203C1.79729 11.3067 1.82754 9.01718 1.88732 6.76835C1.95589 4.1888 3.13519 2.55053 5.20792 2.15524C6.28976 1.95219 7.38257 1.85157 8.47683 1.85412C8.51657 1.85412 8.55644 1.85412 8.59617 1.85412C10.5369 1.86643 12.5104 1.9265 14.4189 1.98442C15.2037 2.00825 15.9883 2.0312 16.773 2.05321C16.8049 2.05381 16.8357 2.03894 16.8589 2.01177C16.8638 2.00601 16.8683 1.99977 16.8723 1.99311C17.6977 2.01859 18.5233 2.04387 19.3487 2.06898C21.6779 2.13993 24.0862 2.21379 26.4547 2.29719C27.1565 2.32195 27.8921 2.43325 28.5178 3.07527C29.1362 3.71049 29.4404 4.39427 29.4748 5.22728L29.4982 5.79614C29.5819 7.81373 29.6682 9.90025 29.734 11.9527C29.7486 12.4095 29.7643 12.8664 29.7809 13.3234C29.8404 15.056 29.9031 16.8466 29.889 18.6045V18.6042Z" fill="white" fill-opacity="0.8"/>
<path id="Vector_2" d="M20.4298 13.7788C19.9406 13.2847 19.4399 12.8024 19.0148 12.3958L18.5097 11.9126C17.1822 10.6428 15.8096 9.32931 14.4505 8.05163C14.2128 7.84386 13.9516 7.68037 13.6755 7.5664C13.1869 7.34588 12.7026 7.53749 12.4692 8.04427C12.1437 8.75146 11.9736 9.35507 11.9492 9.88922C11.8859 11.2748 11.8733 12.6854 11.8611 14.0494C11.8566 14.5394 11.8523 15.0299 11.8455 15.5197C11.8246 15.5309 11.8067 15.5492 11.7939 15.5726C11.781 15.5957 11.7739 15.6231 11.7731 15.6512L11.7357 17.0105C11.7001 18.3073 11.6636 19.6041 11.6262 20.9011C11.6098 21.4568 11.7577 21.8307 12.0783 22.0441C12.2098 22.1339 12.3575 22.1814 12.5078 22.1824C12.723 22.1745 12.9319 22.0904 13.1093 21.94C13.7712 21.4199 14.4334 20.9002 15.096 20.381C16.8191 19.0296 18.6008 17.6324 20.3473 16.245C20.7628 15.9147 20.9931 15.5116 21.0129 15.0789C21.033 14.6338 20.8315 14.1845 20.4298 13.7788ZM18.487 15.0309L13.3706 19.1548L13.5018 10.3853C14.5401 11.2519 15.5124 12.1912 16.5377 13.1825C17.1679 13.7908 17.8177 14.4186 18.487 15.0309Z" fill="white" fill-opacity="0.8"/>
</g>
<defs>
<clipPath id="clip0_841_3885">
<rect width="32" height="32" fill="white"/>
</clipPath>
</defs>
</svg>
