<svg width="31" height="30" viewBox="0 0 31 30" fill="none" xmlns="http://www.w3.org/2000/svg">
<path d="M23.1634 14.6168C23.0583 14.6068 22.9528 14.5962 22.8475 14.5854C22.4148 14.5418 21.9674 14.4969 21.5256 14.491C19.7623 14.4674 17.2665 14.449 14.8527 14.4313C12.983 14.4182 11.2173 14.405 9.86401 14.3898C9.76552 14.3861 9.66734 14.3759 9.5701 14.3594L9.50416 14.3498L9.58919 14.255C9.68498 14.1479 9.76451 14.0592 9.84736 13.9738C11.0167 12.7492 11.9941 11.3454 12.7447 9.81248L12.7685 9.76557C12.8427 9.63276 12.9013 9.49129 12.9428 9.34417C12.9567 9.2569 12.951 9.16751 12.9259 9.08291C12.9185 9.04894 12.911 9.01496 12.9066 8.98164L12.8975 8.91235L12.8307 8.92554C12.7918 8.93254 12.7525 8.93747 12.7131 8.94029C12.6124 8.93797 12.5136 8.96787 12.4303 9.02588C12.3378 9.11552 12.2548 9.21492 12.1826 9.32244C12.1267 9.40339 12.0656 9.48049 11.9999 9.55318C11.4614 10.1194 10.9217 10.6847 10.3809 11.2488C9.68609 11.9747 8.99259 12.7019 8.30036 13.4306C7.99166 13.7359 7.71332 14.0721 7.46948 14.4341C7.12166 14.9894 7.17493 15.4514 7.64633 15.9787C8.09942 16.485 8.5739 17.0336 9.09691 17.6557C9.47769 18.1085 9.85658 18.563 10.2336 19.0191C10.6434 19.5132 11.0548 20.0063 11.4678 20.4984C11.6255 20.6962 11.8104 20.8692 12.0168 21.012C12.0954 21.0555 12.1837 21.077 12.2729 21.0745C12.358 21.0803 12.4424 21.055 12.5112 21.0031C12.5681 20.9331 12.6064 20.8491 12.6224 20.7593C12.6384 20.6695 12.6316 20.577 12.6027 20.4908C12.4909 20.2797 12.3582 20.0811 12.2067 19.8982C12.1736 19.8552 12.1405 19.8123 12.1081 19.7692C11.6327 19.1388 11.1569 18.5089 10.6807 17.8796C10.1257 17.1458 9.57142 16.4118 9.01776 15.6774C8.97215 15.6121 8.93197 15.543 8.89764 15.4707L8.871 15.4194C9.17682 15.4349 9.47785 15.4506 9.77411 15.4664C10.5069 15.5049 11.199 15.5412 11.9007 15.5689C13.3918 15.6273 15.57 15.6844 17.6764 15.7393C19.4897 15.7867 21.2024 15.8315 22.4602 15.8761C22.7067 15.8824 22.9532 15.8645 23.1963 15.8225C23.5677 15.7618 23.7561 15.5653 23.7559 15.2381C23.7551 14.8742 23.5448 14.6531 23.1634 14.6168Z" fill="white"/>
<path d="M1.03066 10.8723C-0.295055 16.2303 0.865847 20.9571 4.48352 24.9235C4.57765 25.026 4.67369 25.1285 4.76961 25.2272C6.71298 27.2255 9.13351 28.4593 11.0514 29.3179C11.8746 29.6875 16.0985 30.1365 17.2412 29.9615C24.0328 28.9186 28.5022 24.9795 30.0589 18.3895C30.3561 17.0986 30.5042 15.7762 30.4999 14.4496C30.5071 11.3246 29.2276 7.69161 26.5888 4.97064C26.3172 4.73966 26.0464 4.50037 25.7847 4.2686C25.2169 3.7666 24.6301 3.24708 24.0162 2.80381C19.3264 -0.590347 14.4535 -0.609439 9.5337 1.19049C5.07939 2.81857 2.21871 6.07669 1.03066 10.8723ZM9.55279 2.79433C13.8696 0.949625 18.2008 0.624089 22.4251 3.38693C23.1976 3.89262 25.2567 5.60406 25.581 5.86112L25.6017 5.87694L25.619 5.89655C27.2671 7.69372 29.1542 10.9798 29.1126 14.3577C29.0988 15.8021 28.9086 17.2391 28.5465 18.6347C27.4735 22.6453 24.9081 25.5683 20.7037 27.5675C16.4296 29.672 10.2998 27.5444 8.6689 26.4373C6.86629 25.17 5.28903 23.5934 4.00609 21.7764C1.99396 18.847 1.5424 14.6361 2.62364 10.7867C3.12965 9.00933 4.01395 7.37001 5.21243 5.98763C6.41091 4.60526 7.89354 3.51446 9.55279 2.79433Z" fill="white"/>
</svg>
